# xmcd CD database file
#
# Track frame offsets:
#	151
#	8414
#	16046
#	26158
#	41135
#	50996
#	63244
#	68261
#	79465
#	94698
#
# Disc length: 1386 seconds
#
# Revision: 1
# Processed by: cddbd v1.4PL0 Copyright (c) Steve Scherf et al.
# Submitted via: CDex 1.40Release
#
DISCID=7505680a
DTITLE=Buddy Holly - That'll be the day
DYEAR=1900
DGENRE=
TTITLE0=Maybe Baby
TTITLE1=Oh Boy
TTITLE2=That'll Be The Day
TTITLE3=Doin' Like Elvis
TTITLE4=Everyday
TTITLE5=I've Got To Be Me
TTITLE6=Keep A Kockin'
TTITLE7=Quando
TTITLE8=Welcome To The Country
TTITLE9=Well Alright
EXTD=
EXTT0=
EXTT1=
EXTT2=
EXTT3=
EXTT4=
EXTT5=
EXTT6=
EXTT7=
EXTT8=
EXTT9=
PLAYORDER=
